<?xml version="1.0" encoding="UTF-8"?>
<svg id="Layer_1" data-name="Layer 1" xmlns="http://www.w3.org/2000/svg" viewBox="0 0 400 400">
  <path d="M200,0C91,0,2.33,89.72,2.33,200s88.68,200,197.67,200,197.67-89.72,197.67-200S309,0,200,0ZM200,375.59c-95.54,0-173.26-78.77-173.26-175.59S104.46,24.41,200,24.41s173.26,78.77,173.26,175.59-77.72,175.59-173.26,175.59Z"/>
  <path d="M287.73,187.79h-75.53v-76.63c0-6.74-5.47-12.21-12.21-12.21s-12.21,5.47-12.21,12.21v76.63h-75.53c-6.74,0-12.21,5.47-12.21,12.21s5.47,12.21,12.21,12.21h75.53v76.63c0,6.74,5.47,12.21,12.21,12.21s12.21-5.47,12.21-12.21v-76.63h75.53c6.74,0,12.21-5.47,12.21-12.21s-5.47-12.21-12.21-12.21Z"/>
</svg>