<?xml version="1.0" encoding="UTF-8"?>
<svg id="Layer_1" data-name="Layer 1" xmlns="http://www.w3.org/2000/svg" viewBox="0 0 400 400">
  <path d="M219.73,200L395.91,23.82c5.45-5.45,5.45-14.28,0-19.73-5.45-5.45-14.28-5.45-19.73,0l-176.18,176.18L23.82,4.09C18.37-1.36,9.54-1.36,4.09,4.09c-5.45,5.45-5.45,14.28,0,19.73l176.18,176.18L4.09,376.18c-5.45,5.45-5.45,14.28,0,19.73,2.72,2.72,6.3,4.09,9.87,4.09s7.14-1.36,9.87-4.09l176.18-176.18,176.18,176.18c2.72,2.72,6.3,4.09,9.87,4.09s7.14-1.36,9.87-4.09c5.45-5.45,5.45-14.28,0-19.73l-176.18-176.18Z"/>
</svg>