<?xml version="1.0" encoding="UTF-8"?>
<svg id="Layer_1" data-name="Layer 1" xmlns="http://www.w3.org/2000/svg" viewBox="0 0 400 400">
  <path d="M373.59,107.29h-77.44v-49.94C296.15,25.73,270.47,0,238.91,0H61.24C29.68,0,4,25.73,4,57.35v178.01c0,31.62,25.68,57.35,57.24,57.35h42.61v84.84c0,12.38,10.05,22.45,22.41,22.45h247.34c12.35,0,22.41-10.07,22.41-22.45v-247.81c0-12.38-10.05-22.45-22.41-22.45ZM61.24,268.3c-18.13,0-32.88-14.78-32.88-32.94V57.35c0-18.16,14.75-32.94,32.88-32.94h177.67c18.13,0,32.88,14.78,32.88,32.94v49.94H126.25c-12.35,0-22.41,10.07-22.41,22.45v138.56h-42.61ZM371.63,375.59h-243.42v-243.88h243.42v243.88Z"/>
</svg>