<?xml version="1.0" encoding="UTF-8"?>
<svg id="Layer_1" data-name="Layer 1" xmlns="http://www.w3.org/2000/svg" viewBox="0 0 400 400" fill="white" opacity="0.5">
  <path d="M4,129.74v247.81c0,12.38,10.05,22.45,22.41,22.45h247.34c12.35,0,22.41-10.07,22.41-22.45v-84.84h42.61c31.56,0,57.24-25.73,57.24-57.35V57.35C396,25.73,370.32,0,338.76,0h-177.67c-31.56,0-57.24,25.73-57.24,57.35v49.94H26.41c-12.35,0-22.41,10.07-22.41,22.45ZM296.15,268.3v-138.56c0-12.38-10.05-22.45-22.41-22.45h-145.53v-49.94c0-18.16,14.75-32.94,32.88-32.94h177.67c18.13,0,32.88,14.78,32.88,32.94v178.01c0,18.16-14.75,32.94-32.88,32.94h-42.61ZM28.37,131.7h243.42v243.88H28.37v-243.88Z"/>
</svg>