<?xml version="1.0" encoding="UTF-8"?>
<svg id="Layer_1" data-name="Layer 1" xmlns="http://www.w3.org/2000/svg" viewBox="0 0 400 400">
  <defs>
    <style>
      .cls-1 {
        fill: white;
      }
    </style>
  </defs>
  <g>
    <path class="cls-1" d="M200,30c-56.1,0-101.73,45.84-101.73,102.18s45.64,102.17,101.73,102.17,101.73-45.84,101.73-102.17-45.64-102.18-101.73-102.18ZM200,221.88c-49.25,0-89.32-40.24-89.32-89.7s40.07-89.7,89.32-89.7,89.32,40.24,89.32,89.7-40.07,89.7-89.32,89.7Z"/>
    <path class="cls-1" d="M236.34,95.67c-2.42-2.44-6.36-2.44-8.78,0l-27.56,27.68-27.56-27.68c-2.42-2.44-6.36-2.44-8.78,0-2.42,2.44-2.42,6.38,0,8.82l27.56,27.68-27.56,27.68c-2.42,2.44-2.42,6.38,0,8.82,1.21,1.22,2.8,1.83,4.39,1.83s3.18-.61,4.39-1.83l27.56-27.68,27.56,27.68c1.21,1.22,2.8,1.83,4.39,1.83s3.18-.61,4.39-1.83c2.42-2.44,2.42-6.38,0-8.82l-27.56-27.68,27.56-27.68c2.42-2.44,2.42-6.38,0-8.82Z"/>
  </g>
  <g>
    <path class="cls-1" d="M112.25,277.49c-3.92-3.64-8.56-6.39-13.91-8.26-5.35-1.87-11.22-2.8-17.6-2.8-4.26,0-8.35.33-12.27,1-3.92.67-7.61,1.64-11.07,2.91-3.46,1.27-6.63,2.87-9.53,4.81-2.89,1.94-5.5,4.16-7.83,6.66-2.33,2.5-4.29,5.33-5.88,8.46-.47.94-.55,1.79-.25,2.55.3.77.91,1.42,1.85,1.95,1.26.54,2.29.75,3.09.65.8-.1,1.5-.68,2.09-1.75,1.46-2.54,3.12-4.79,4.99-6.76,1.86-1.97,3.95-3.71,6.28-5.21,2.33-1.5,4.87-2.75,7.63-3.76,2.76-1,5.75-1.75,8.98-2.25,3.22-.5,6.67-.75,10.32-.75,5.39,0,10.29.74,14.71,2.2,4.42,1.47,8.23,3.66,11.42,6.56,3.19,2.91,5.67,6.55,7.43,10.92,1.76,4.37,2.64,9.43,2.64,15.18,0,4.14-.55,8.28-1.65,12.42-1.1,4.14-2.64,8.11-4.64,11.92-1.99,3.81-4.31,7.35-6.93,10.62-2.63,3.27-5.49,6.11-8.58,8.51-3.09,2.4-6.3,4.29-9.63,5.66-3.33,1.37-6.65,2.05-9.97,2.05-2.66,0-5.25-.35-7.78-1.05-2.53-.7-5.04-1.62-7.53-2.75-2.49-1.13-5-2.34-7.53-3.61-.91-.46-1.83-.9-2.75-1.34.32-.92.64-1.87.95-2.87l19.75-61.5c.33-1,.17-1.75-.5-2.25-.67-.5-1.8-.75-3.39-.75-1.46,0-2.59.23-3.39.7-.8.47-1.36,1.17-1.7,2.1l-19.55,60.8c-.03.1-.06.19-.09.29-1.6-.59-3.23-1.11-4.9-1.54-2.73-.7-5.55-1.05-8.48-1.05-2.66,0-4.89.52-6.68,1.55-1.8,1.04-3.14,2.4-4.04,4.11-.9,1.7-1.35,3.56-1.35,5.56,0,2.34.63,4.46,1.89,6.36,1.26,1.9,2.92,3.41,4.99,4.51,2.06,1.1,4.32,1.65,6.78,1.65,3.52,0,6.5-.65,8.93-1.95,2.43-1.3,4.59-3.44,6.48-6.41.32-.5.63-1.04.94-1.6,2.66,1.38,5.41,2.75,8.29,4.1,3.19,1.5,6.48,2.75,9.87,3.76s6.82,1.5,10.27,1.5c4.45,0,8.79-.79,13.02-2.35,4.22-1.57,8.24-3.76,12.07-6.56,3.82-2.8,7.31-6.09,10.47-9.87,3.16-3.77,5.88-7.9,8.18-12.37,2.29-4.47,4.09-9.17,5.39-14.07,1.3-4.91,1.95-9.83,1.95-14.78,0-6.94-1.06-13.07-3.19-18.38-2.13-5.31-5.15-9.78-9.08-13.42ZM34.4,360.63c-1.23.84-2.88,1.25-4.94,1.25-1.13,0-2.29-.33-3.49-1-1.2-.67-1.8-1.74-1.8-3.21,0-1.07.33-1.92,1-2.55.66-.63,1.7-.95,3.09-.95,2.33,0,4.82.5,7.48,1.5.62.23,1.26.49,1.89.75-.93,1.97-2.01,3.37-3.24,4.21Z"/>
    <path class="cls-1" d="M151.44,301.08c2.53,0,4.37-.8,5.54-2.4,1.16-1.6,1.75-3.31,1.75-5.11s-.47-3.02-1.4-3.86c-.93-.83-2.09-1.25-3.49-1.25-2.46,0-4.27.8-5.44,2.4-1.16,1.6-1.75,3.31-1.75,5.11,0,1.67.46,2.94,1.4,3.81.93.87,2.06,1.3,3.39,1.3Z"/>
    <path class="cls-1" d="M278.01,301.08c2.53,0,4.37-.8,5.54-2.4,1.16-1.6,1.75-3.31,1.75-5.11s-.47-3.02-1.4-3.86c-.93-.83-2.09-1.25-3.49-1.25-2.46,0-4.27.8-5.44,2.4-1.16,1.6-1.75,3.31-1.75,5.11,0,1.67.46,2.94,1.4,3.81.93.87,2.06,1.3,3.39,1.3Z"/>
    <path class="cls-1" d="M383.84,352.47c-.67-.73-1.53-1.24-2.59-1.5-1.06-.27-1.99.07-2.79,1-1.6,1.74-3.31,3.36-5.14,4.86-1.83,1.5-3.72,2.7-5.69,3.61-1.96.9-3.97,1.35-6.03,1.35-1.93,0-3.61-.37-5.04-1.1-1.43-.73-2.61-1.74-3.54-3.01-.2-.27-.39-.56-.57-.85.9-.62,1.8-1.26,2.66-1.85,3.86-2.81,7.35-5.83,10.47-9.07,3.12-3.24,5.64-6.51,7.53-9.82,1.9-3.31,2.84-6.46,2.84-9.47,0-2.2-.48-4.09-1.45-5.66-.96-1.57-2.28-2.77-3.94-3.61-1.66-.83-3.49-1.25-5.49-1.25-3.46,0-6.48.7-9.08,2.1-2.59,1.4-4.82,3.27-6.68,5.61-1.86,2.34-3.38,4.93-4.54,7.76-1.16,2.84-2.01,5.69-2.54,8.56-.53,2.87-.8,5.54-.8,8.01,0,2.13.23,4.2.67,6.21-3.86,2.43-7.39,4.3-10.59,5.61-3.76,1.54-7,2.3-9.72,2.3h0c-.8,0-1.7-.18-2.69-.55-1-.37-2.08-1.07-3.24-2.1-1.16-1.03-2.41-2.5-3.74-4.41-1.33-1.9-2.76-4.39-4.29-7.46,3.19-1,6.13-2.14,8.83-3.41,2.69-1.27,5.12-2.67,7.28-4.21,2.16-1.53,3.99-3.14,5.49-4.81,1.5-1.67,2.64-3.37,3.44-5.11.8-1.74,1.2-3.47,1.2-5.21,0-2.54-.75-4.64-2.24-6.31-1.5-1.67-3.48-2.5-5.93-2.5-3.19,0-6.5,1.05-9.92,3.15-3.42,2.1-6.7,5.03-9.85,8.79l1.45-4.45c.91-.71,1.8-1.42,2.67-2.14,3.12-2.57,6.03-5.16,8.73-7.76,2.69-2.6,5.15-5.21,7.38-7.81,2.23-2.6,4.2-5.16,5.93-7.66,1.73-2.5,3.16-4.96,4.29-7.36,1.13-2.4,2.01-4.71,2.64-6.91.63-2.2.95-4.31.95-6.31,0-2.27-.45-4.29-1.35-6.06-.9-1.77-2.13-3.16-3.69-4.16-1.56-1-3.44-1.5-5.64-1.5-2.79,0-5.34.77-7.63,2.3-2.29,1.54-4.37,3.96-6.23,7.26-1.86,3.31-3.62,7.56-5.29,12.77l-12.34,37.96c-4.62,6.35-8.66,11.77-12.1,16.24-3.66,4.74-6.78,8.56-9.38,11.47-2.59,2.9-4.77,5.01-6.53,6.31-1.65,1.22-3.06,1.86-4.21,1.94-1.35-.07-2.08-.7-2.17-1.89-.1-1.27.45-3.67,1.65-7.21l10.67-32.76c.46-1.34.41-2.32-.15-2.96-.57-.63-1.88-.95-3.94-.95-1.26,0-2.21.2-2.84.6-.63.4-1.18,1.27-1.65,2.61l-.37,1.13c-4.38,6.94-8.25,12.94-11.6,17.96-3.72,5.58-6.95,10.08-9.67,13.52-2.73,3.44-5.1,5.96-7.13,7.56-2.03,1.6-3.84,2.4-5.44,2.4-1.99,0-3.52-.68-4.59-2.05-1.06-1.37-1.55-3.46-1.45-6.26.09-2.5.67-5.5,1.73-9.01,1.07-1.08,2.14-2.18,3.2-3.31,3.79-4.01,7.46-8.21,11.02-12.62,3.56-4.41,6.86-8.83,9.92-13.27,3.06-4.44,5.74-8.83,8.03-13.17,2.29-4.34,4.09-8.46,5.39-12.37,1.3-3.91,1.94-7.46,1.94-10.67,0-2.74-.45-5.11-1.35-7.11-.9-2-2.13-3.57-3.69-4.71-1.56-1.13-3.41-1.7-5.54-1.7-4.26,0-7.9,1.77-10.92,5.31-3.03,3.54-5.77,9.22-8.23,17.03l-17.55,53.59c-.27.83-.5,1.65-.73,2.45-3.37,3.3-6.62,6.26-9.75,8.82-3.46,2.84-6.62,5.06-9.48,6.66-2.86,1.6-5.22,2.4-7.08,2.4-.05,0-.09,0-.14.01-.02,0-.04-.01-.06-.01-.43,0-1.02.09-1.75.26,1.62-2.42,2.44-5.27,2.44-8.57,0-2-.3-3.92-.9-5.76-.6-1.84-1.36-3.64-2.29-5.41-.93-1.77-1.91-3.49-2.94-5.16-1.03-1.67-2.01-3.32-2.94-4.96-.93-1.64-1.7-3.24-2.29-4.81-.6-1.57-.9-3.15-.9-4.76,1.13-1.33,2.21-2.77,3.24-4.31,1.03-1.53,1.55-2.97,1.55-4.31s-.42-2.32-1.25-3.16c-.83-.83-2.01-1.25-3.54-1.25-1.8,0-3.51.75-5.14,2.25-1.63,1.5-2.44,4.02-2.44,7.56,0,.74.04,1.48.1,2.2-4.11,6.44-7.8,12.01-11.07,16.68-3.99,5.71-7.46,10.29-10.42,13.72-2.96,3.44-5.59,5.93-7.88,7.46-2.19,1.47-4.25,2.23-6.17,2.29-1.38-.06-2.12-.69-2.21-1.89-.1-1.27.45-3.67,1.65-7.21l10.67-32.76c.46-1.34.41-2.32-.15-2.96-.57-.63-1.88-.95-3.94-.95-1.26,0-2.21.2-2.84.6-.63.4-1.18,1.27-1.65,2.61l-10.97,33.56c-.53,1.67-.96,3.46-1.3,5.36-.33,1.9-.33,3.71,0,5.41.33,1.7,1.21,3.09,2.64,4.16,1.34,1,3.33,1.52,5.98,1.59.06,0,.1.01.16.01s.11,0,.17,0c.08,0,.15,0,.23,0,.11,0,.21-.02.32-.02,3.01-.12,5.96-.95,8.85-2.53,3.13-1.7,6.42-4.46,9.87-8.26,3.46-3.81,7.28-8.87,11.47-15.18,2.62-3.94,5.44-8.45,8.47-13.52.28.76.58,1.51.91,2.25.86,1.94,1.76,3.81,2.69,5.61.93,1.8,1.83,3.57,2.69,5.31.86,1.74,1.56,3.46,2.09,5.16.53,1.7.8,3.39.8,5.06,0,2.94-.96,5.24-2.89,6.91-1.93,1.67-4.62,2.5-8.08,2.5-1.8,0-3.48-.28-5.04-.85-1.56-.57-2.91-1.22-4.04-1.95-1.06-.73-1.91-1.13-2.54-1.2-.63-.07-1.35.3-2.14,1.1-.86.8-1.33,1.59-1.4,2.35-.07.77.4,1.69,1.4,2.75,1,1.14,2.81,2.2,5.44,3.21,2.63,1,5.57,1.5,8.83,1.5,2.66,0,5.05-.31,7.21-.91.28,0,.56,0,.82,0,1.56.07,3.04.2,4.44.4,1.4.2,2.79.3,4.19.3,2.26,0,4.89-.7,7.88-2.1,2.99-1.4,6.25-3.37,9.77-5.91,2.92-2.1,5.94-4.53,9.04-7.25-.01.71,0,1.42.04,2.09.26,4.17,1.48,7.41,3.64,9.72,2.16,2.3,5.1,3.46,8.83,3.46.02,0,.04,0,.06,0,.01,0,.03,0,.04,0,2.73,0,5.4-.75,8.03-2.25,2.63-1.5,5.47-4.07,8.53-7.71,3.06-3.64,6.63-8.61,10.72-14.93.33-.5.66-1.03,1-1.56l-3.24,9.92c-.53,1.67-.96,3.46-1.3,5.36-.33,1.9-.33,3.71,0,5.41.33,1.7,1.21,3.09,2.64,4.16,1.31.98,3.26,1.51,5.84,1.59.07,0,.13.02.2.02.06,0,.12,0,.18,0,.11,0,.21,0,.31,0,.66,0,1.24-.09,1.75-.26,1.33-.3,2.7-.86,4.14-1.69,2.26-1.3,4.87-3.51,7.83-6.61,2.96-3.11,6.45-7.31,10.47-12.62,1.29-1.71,2.67-3.57,4.11-5.56l-7.56,23.24c-.4,1.27-.13,2.14.8,2.6.93.47,1.93.7,2.99.7,1.53,0,2.63-.22,3.29-.65.66-.43,1.13-1.08,1.4-1.95l6.05-18.58c1.71,4.21,3.47,7.68,5.27,10.42,1.83,2.77,3.64,4.96,5.44,6.56,1.8,1.6,3.51,2.74,5.14,3.41,1.63.67,3.14,1,4.54,1,.02,0,.03,0,.05,0,.02,0,.03,0,.05,0,1.93,0,4.24-.35,6.93-1.05,2.69-.7,5.72-1.84,9.08-3.41,2.62-1.22,5.41-2.77,8.37-4.62,0,0,0,.01,0,.01.96,1.84,2.18,3.42,3.64,4.76,1.46,1.34,3.16,2.39,5.09,3.15,1.93.77,4.12,1.15,6.58,1.15,2.73,0,5.47-.37,8.23-1.1,2.76-.73,5.49-1.99,8.18-3.76,2.69-1.77,5.3-4.26,7.83-7.46.8-1,1.15-1.9,1.05-2.7-.1-.8-.48-1.57-1.15-2.3ZM246.59,290.36c1.53-4.34,2.83-7.7,3.89-10.07,1.06-2.37,2.08-4.01,3.04-4.91.96-.9,1.98-1.35,3.04-1.35.93,0,1.63.23,2.09.7.46.47.8,1.1,1,1.9.2.8.3,1.77.3,2.9,0,3.41-.73,7.2-2.19,11.37-1.46,4.17-3.46,8.53-5.98,13.07-2.53,4.54-5.44,9.12-8.73,13.72-2.93,4.11-6.03,8.12-9.29,12.04l12.83-39.38ZM318.31,290.66c1.46-4.47,2.73-7.91,3.79-10.32,1.06-2.4,2.09-4.06,3.09-4.96,1-.9,2.03-1.35,3.09-1.35.8,0,1.46.18,1.99.55.53.37.93.89,1.2,1.55.26.67.4,1.47.4,2.4,0,1.47-.27,3.09-.8,4.86-.53,1.77-1.26,3.67-2.19,5.71-.93,2.04-2.09,4.12-3.49,6.26-1.4,2.14-2.94,4.31-4.64,6.51-1.7,2.2-3.53,4.41-5.49,6.61-1.34,1.5-2.75,2.96-4.19,4.4l7.23-22.23ZM301.31,342.91c2.39-3.19,4.75-6.13,7.07-8.78,2.69-3.07,5.29-5.51,7.78-7.31,2.49-1.8,4.74-2.7,6.73-2.7.93,0,1.63.22,2.09.65.46.44.7,1.05.7,1.85,0,1.4-.6,2.86-1.8,4.36-1.2,1.5-2.89,3.01-5.09,4.51-2.19,1.5-4.85,2.9-7.98,4.21-2.89,1.2-6.07,2.27-9.52,3.22ZM351.02,340.55c.53-2.74,1.35-5.34,2.44-7.81,1.1-2.47,2.44-4.52,4.04-6.16,1.6-1.64,3.42-2.45,5.49-2.45,1.33,0,2.33.44,2.99,1.3.66.87,1,2.07,1,3.61,0,1.94-.72,4.04-2.14,6.31-1.43,2.27-3.34,4.58-5.74,6.91-2.39,2.34-5.09,4.61-8.08,6.81-.24.17-.49.34-.73.51-.04-.53-.07-1.06-.07-1.61,0-2.2.26-4.67.8-7.41Z"/>
  </g>
</svg>