<?xml version="1.0" encoding="UTF-8"?>
<svg id="Layer_1" data-name="Layer 1" xmlns="http://www.w3.org/2000/svg" viewBox="0 0 400 400">
  <path d="M200,0C89.72,0,0,89.72,0,200s89.72,200,200,200,200-89.72,200-200S310.28,0,200,0ZM200,375.59c-96.82,0-175.59-78.77-175.59-175.59S103.18,24.41,200,24.41s175.59,78.77,175.59,175.59-78.77,175.59-175.59,175.59Z"/>
  <path d="M271.45,128.55c-4.77-4.77-12.5-4.77-17.26,0l-54.18,54.18-54.18-54.18c-4.77-4.77-12.5-4.77-17.26,0-4.77,4.77-4.77,12.5,0,17.26l54.18,54.18-54.18,54.18c-4.77,4.77-4.77,12.5,0,17.26,2.38,2.38,5.51,3.58,8.63,3.58s6.25-1.19,8.63-3.58l54.18-54.18,54.18,54.18c2.38,2.38,5.51,3.58,8.63,3.58s6.25-1.19,8.63-3.58c4.77-4.77,4.77-12.5,0-17.26l-54.18-54.18,54.18-54.18c4.77-4.77,4.77-12.5,0-17.26Z"/>
</svg>