<?xml version="1.0" encoding="UTF-8"?>
<svg id="Layer_1" data-name="Layer 1" xmlns="http://www.w3.org/2000/svg" viewBox="0 0 400 400">
  <defs>
    <style>
      .cls-1 {
        fill: #0c0b0d;
      }
    </style>
  </defs>
  <path class="cls-1" d="M200,0C89.72,0,0,89.72,0,200s89.72,200,200,200,200-89.72,200-200S310.28,0,200,0ZM200,325.42c-11.84,0-21.47-9.63-21.47-21.47s9.63-21.47,21.47-21.47,21.47,9.63,21.47,21.47-9.63,21.47-21.47,21.47ZM182.38,236.06V92.2c0-9.72,7.91-17.62,17.62-17.62s17.61,7.9,17.61,17.62v143.86c0,9.71-7.9,17.62-17.61,17.62s-17.62-7.91-17.62-17.62Z"/>
</svg>