<?xml version="1.0" encoding="UTF-8"?>
<svg id="Layer_1" data-name="Layer 1" xmlns="http://www.w3.org/2000/svg" viewBox="0 0 400 400">
  <path d="M398.64,152.81c-3.63-11.16-13.56-18.38-25.3-18.38h-111.66c-.86,0-1.61-.55-1.88-1.36l-34.5-106.2c-3.63-11.17-13.56-18.38-25.31-18.38s-21.67,7.22-25.29,18.38l-34.51,106.2c-.26.81-1.02,1.36-1.87,1.36H26.65c-11.74,0-21.67,7.22-25.3,18.38-3.62,11.17.17,22.84,9.67,29.75l90.33,65.63c.7.5.99,1.39.72,2.2l-34.51,106.2c-3.62,11.17.17,22.84,9.67,29.74,9.5,6.9,21.77,6.9,31.27,0l90.33-65.63c.7-.5,1.63-.5,2.33,0l90.33,65.63c4.75,3.45,10.19,5.18,15.64,5.18s10.89-1.73,15.64-5.18c9.49-6.9,13.29-18.57,9.66-29.74l-34.51-106.19c-.26-.82.03-1.71.72-2.21l90.34-65.63c9.49-6.9,13.29-18.58,9.66-29.75Z"/>
</svg>