<?xml version="1.0" encoding="UTF-8"?>
<svg id="Layer_1" data-name="Layer 1" xmlns="http://www.w3.org/2000/svg" viewBox="0 0 400 400">
  <path d="M161.42,400c-1.57,0-3.16-.3-4.67-.93-4.56-1.89-7.53-6.34-7.53-11.28v-166.79L31.58,103.45c-2.29-2.29-3.58-5.4-3.58-8.64V12.21C28,5.47,33.46,0,40.2,0h319.59C366.54,0,372,5.47,372,12.21v82.6c0,3.24-1.29,6.34-3.57,8.63l-117.52,117.56v89.49c0,3.24-1.29,6.34-3.57,8.63l-77.28,77.31c-2.33,2.34-5.46,3.58-8.63,3.58ZM52.41,89.75l117.64,117.56c2.29,2.29,3.58,5.4,3.58,8.64v142.38l52.88-52.89v-89.49c0-3.24,1.29-6.34,3.57-8.63l117.52-117.56V24.41H52.41v65.34Z"/>
</svg>