<?xml version="1.0" encoding="UTF-8"?>
<svg id="Layer_1" data-name="Layer 1" xmlns="http://www.w3.org/2000/svg" viewBox="0 0 400 400">
  <defs>
    <style>
      .cls-1 {
        fill: #0c0b0d;
      }
    </style>
  </defs>
  <path class="cls-1" d="M400,204.45c0-16.45-1.36-28.45-4.29-40.91h-191.64v74.24h112.47c-2.25,18.44-14.49,46.22-41.71,64.89h0c-17.24,11.78-40.36,20-70.75,20-52.51,0-99.19-33.42-116.11-83.13h.02c-4.47-12.71-6.79-26.07-6.85-39.55,0-13.78,2.51-27.11,6.56-39.55v-.04s.05.04.05.04c17.06-49.7,63.78-83.09,116.33-83.13,38.33,0,64.16,16.22,78.91,29.78l57.58-55.11C305.22,19.78,259.18,0,204.09,0,124.26,0,55.34,44.88,21.78,110.2l-.05.02C7.47,138,.02,168.77,0,200,0,232.22,7.93,262.67,21.76,289.78h0c33.56,65.33,102.51,110.22,182.33,110.22,55.09,0,101.35-17.78,135.15-48.45h-.01c38.58-34.88,60.77-86.22,60.77-147.09Z"/>
</svg>