<?xml version="1.0" encoding="UTF-8"?>
<svg id="Layer_1" data-name="Layer 1" xmlns="http://www.w3.org/2000/svg" viewBox="0 0 400 400" fill="white" opacity="0.5">
  <path d="M146.89,158.34H12.21c-6.74,0-12.21-5.47-12.21-12.21V12.21C0,5.47,5.47,0,12.21,0h134.68C153.63,0,159.09,5.47,159.09,12.21v133.93c0,6.74-5.47,12.21-12.21,12.21ZM24.41,133.93h110.27V24.41H24.41v109.52Z"/>
  <path d="M387.79,158.34h-134.68c-6.74,0-12.21-5.47-12.21-12.21V12.21C240.91,5.47,246.37,0,253.11,0h134.68C394.53,0,400,5.47,400,12.21v133.93c0,6.74-5.47,12.21-12.21,12.21ZM265.32,133.93h110.27V24.41h-110.27v109.52Z"/>
  <path d="M146.89,400H12.21c-6.74,0-12.21-5.47-12.21-12.21v-133.93c0-6.74,5.47-12.21,12.21-12.21h134.68c6.74,0,12.21,5.47,12.21,12.21v133.93c0,6.74-5.47,12.21-12.21,12.21ZM24.41,375.59h110.27v-109.52H24.41v109.52Z"/>
  <path d="M387.79,400h-134.68c-6.74,0-12.21-5.47-12.21-12.21v-133.93c0-6.74,5.47-12.21,12.21-12.21h134.68c6.74,0,12.21,5.47,12.21,12.21v133.93c0,6.74-5.47,12.21-12.21,12.21ZM265.32,375.59h110.27v-109.52h-110.27v109.52Z"/>
</svg>