<?xml version="1.0" encoding="UTF-8"?>
<svg id="Layer_1" data-name="Layer 1" xmlns="http://www.w3.org/2000/svg" viewBox="0 0 400 400">
  <defs>
    <style>
      .cls-1 {
        fill: #0c0b0d;
      }
    </style>
  </defs>
  <path class="cls-1" d="M398.83,195.25c-14.54-27.67-35.25-52.51-59.89-71.81-8.94-7.08-18.46-13.46-28.39-19.07l63.25-62.96c4-3.98,4-10.45,0-14.43-4-3.98-10.5-3.98-14.5,0l-112.06,111.54s-.07.06-.1.09c-.03.03-.06.07-.09.1l-148.02,147.34s-.03.03-.05.05l-72.8,72.47c-4,3.98-4,10.45,0,14.43,1.94,1.93,4.51,2.99,7.25,2.99s5.32-1.06,7.25-2.99l67.99-67.68c13.83,6.13,28.21,10.86,42.8,14.05.14.03.29.06.44.09,15.75,3.42,31.93,5.16,48.09,5.16,83.74,0,159.93-45.95,198.83-119.91,1.56-2.96,1.56-6.5,0-9.47ZM265.81,189.48c.57,3.45.85,6.88.85,10.5,0,36.61-29.9,66.39-66.66,66.39-3.59,0-7.15-.29-10.62-.86-10.49-1.65-20.26-5.73-28.73-11.92l93.18-92.76c6.22,8.45,10.31,18.19,11.98,28.65ZM146.02,268.16c11.64,9.18,25.33,15.18,40.08,17.5,4.51.75,9.18,1.12,13.91,1.12,48.06,0,87.17-38.94,87.17-86.8,0-4.68-.38-9.32-1.12-13.76-2.34-14.7-8.36-28.34-17.58-39.95l26.99-26.87c10.82,5.72,21.14,12.43,30.77,20.05,20.96,16.43,38.85,37.31,51.87,60.53-36.04,64.37-103.99,104.23-178.09,104.23-14.79,0-29.6-1.6-43.93-4.73-.14-.03-.29-.06-.44-.09-10.64-2.34-21.11-5.59-31.31-9.64l21.69-21.59Z"/>
  <path class="cls-1" d="M61.05,276.57c1.8,1.42,4.06,2.2,6.35,2.2,3.16,0,6.1-1.42,8.05-3.88,1.7-2.14,2.46-4.81,2.14-7.52-.32-2.71-1.68-5.13-3.83-6.82-20.96-16.48-38.84-37.37-51.85-60.57,36.04-64.36,103.99-104.2,178.09-104.2,14.81,0,29.62,1.6,44,4.75,2.68.6,5.42.11,7.73-1.35,2.31-1.47,3.91-3.75,4.5-6.42.59-2.66.1-5.39-1.37-7.69-1.47-2.3-3.76-3.88-6.43-4.47-15.83-3.47-32.13-5.23-48.43-5.23-83.74,0-159.92,45.94-198.83,119.88-1.56,2.96-1.56,6.5,0,9.46,14.52,27.63,35.22,52.48,59.88,71.86Z"/>
  <path class="cls-1" d="M200,133.62c3.63,0,7.08.28,10.54.85,2.7.45,5.42-.18,7.64-1.76,2.23-1.59,3.7-3.95,4.15-6.64.45-2.69-.19-5.39-1.78-7.61-1.6-2.22-3.96-3.68-6.66-4.13-4.53-.74-9.2-1.12-13.89-1.12-48.06,0-87.17,38.92-87.17,86.77,0,4.6.37,9.24,1.09,13.79.79,4.99,5.05,8.61,10.12,8.61.54,0,1.08-.04,1.6-.12,2.71-.42,5.08-1.87,6.7-4.08,1.61-2.21,2.26-4.9,1.83-7.59-.55-3.49-.84-7.06-.84-10.61,0-36.59,29.9-66.36,66.66-66.36Z"/>
</svg>