<?xml version="1.0" encoding="UTF-8"?>
<svg id="Layer_1" data-name="Layer 1" xmlns="http://www.w3.org/2000/svg" viewBox="0 0 400 400">
  <path d="M200,400C89.72,400,0,310.28,0,200S89.72,0,200,0s200,89.72,200,200-89.72,200-200,200ZM200,24.41C103.18,24.41,24.41,103.18,24.41,200s78.77,175.59,175.59,175.59,175.59-78.77,175.59-175.59S296.82,24.41,200,24.41Z"/>
  <g>
    <path d="M200,146.32c-9.71,0-17.62,7.9-17.62,17.62v143.87c0,9.71,7.9,17.62,17.62,17.62s17.62-7.9,17.62-17.62v-143.87c0-9.71-7.9-17.62-17.62-17.62Z"/>
    <path d="M200,117.52c11.84,0,21.47-9.63,21.47-21.47s-9.63-21.47-21.47-21.47-21.47,9.63-21.47,21.47,9.63,21.47,21.47,21.47Z"/>
  </g>
</svg>