<?xml version="1.0" encoding="UTF-8"?>
<svg id="Layer_1" data-name="Layer 1" xmlns="http://www.w3.org/2000/svg" viewBox="0 0 400 400">
  <defs>
    <style>
      .cls-1 {
        fill: white;
      }
    </style>
  </defs>
  <path class="cls-1" d="M247.69,36c-19.83,0-38.05,11.01-47.61,28.41-9.4-17.4-27.68-28.41-47.77-28.41-30.13,0-54.65,24.59-54.65,54.81,0,79.73,95.72,128.45,99.79,130.48.91.45,1.92.69,2.93.69s2.06-.25,2.95-.71c4.04-2.04,99.01-51,99.01-130.47,0-30.22-24.52-54.81-54.65-54.81Z"/>
  <g>
    <path class="cls-1" d="M203.38,294.87c2.54,0,4.4-.8,5.57-2.4,1.17-1.6,1.76-3.31,1.76-5.11s-.47-3.02-1.4-3.86c-.94-.83-2.11-1.25-3.51-1.25-2.48,0-4.3.8-5.47,2.4-1.17,1.6-1.76,3.31-1.76,5.11,0,1.67.47,2.94,1.41,3.81.94.87,2.07,1.3,3.41,1.3Z"/>
    <path class="cls-1" d="M309.83,346.27c-.67-.73-1.54-1.24-2.61-1.5-1.07-.27-2.01.07-2.81,1-1.61,1.74-3.33,3.36-5.17,4.86-1.84,1.5-3.75,2.71-5.72,3.61-1.97.9-4,1.35-6.07,1.35-1.94,0-3.63-.37-5.07-1.1-1.44-.73-2.63-1.74-3.56-3.01-.2-.27-.39-.56-.57-.85.9-.62,1.81-1.26,2.68-1.85,3.88-2.81,7.39-5.83,10.53-9.07,3.14-3.24,5.67-6.51,7.57-9.82,1.91-3.31,2.86-6.46,2.86-9.47,0-2.2-.49-4.09-1.45-5.66-.97-1.57-2.29-2.77-3.96-3.61-1.67-.83-3.51-1.25-5.52-1.25-3.48,0-6.52.7-9.13,2.1-2.61,1.4-4.85,3.27-6.72,5.61-1.87,2.34-3.4,4.93-4.57,7.76-1.17,2.84-2.02,5.7-2.56,8.57-.54,2.87-.8,5.55-.8,8.01,0,2.13.23,4.2.67,6.21-3.88,2.43-7.43,4.3-10.65,5.61-3.78,1.54-7.04,2.3-9.78,2.3-.8,0-1.71-.18-2.71-.55-1-.37-2.09-1.07-3.26-2.1-1.17-1.03-2.43-2.5-3.76-4.41-1.34-1.9-2.78-4.39-4.31-7.46,3.21-1,6.17-2.14,8.88-3.41,2.71-1.27,5.15-2.67,7.32-4.21,2.17-1.54,4.01-3.14,5.52-4.81,1.5-1.67,2.66-3.37,3.46-5.11.8-1.74,1.2-3.47,1.2-5.21,0-2.54-.75-4.64-2.26-6.31-1.5-1.67-3.5-2.5-5.97-2.5-3.21,0-6.54,1.05-9.98,3.16-3.44,2.1-6.74,5.03-9.91,8.79l1.46-4.45c.91-.71,1.81-1.42,2.69-2.14,3.14-2.57,6.07-5.16,8.78-7.76,2.71-2.6,5.18-5.21,7.42-7.81,2.24-2.6,4.23-5.16,5.97-7.66,1.74-2.5,3.18-4.96,4.31-7.36,1.14-2.4,2.02-4.71,2.66-6.91.63-2.2.95-4.31.95-6.31,0-2.27-.45-4.29-1.35-6.06-.9-1.77-2.14-3.16-3.71-4.16-1.57-1-3.46-1.5-5.67-1.5-2.81,0-5.37.77-7.68,2.31-2.31,1.54-4.4,3.96-6.27,7.26-1.87,3.31-3.65,7.56-5.32,12.77l-12.41,37.96c-4.65,6.35-8.71,11.78-12.17,16.24-3.68,4.74-6.82,8.57-9.43,11.47-2.61,2.9-4.8,5.01-6.57,6.31-1.66,1.22-3.07,1.86-4.24,1.94-1.36-.07-2.09-.7-2.18-1.89-.1-1.27.45-3.67,1.66-7.21l10.74-32.76c.47-1.34.42-2.32-.15-2.96-.57-.63-1.89-.95-3.96-.95-1.27,0-2.22.2-2.86.6-.64.4-1.19,1.27-1.66,2.61l-.37,1.13c-4.4,6.95-8.3,12.94-11.67,17.96-3.75,5.58-6.99,10.09-9.73,13.53-2.74,3.44-5.13,5.96-7.17,7.56-1.93,1.52-3.67,2.31-5.21,2.39-1.93-.04-4.1-.41-6.53-1.14-2.58-.77-5.32-1.74-8.23-2.9-2.91-1.17-5.97-2.45-9.18-3.86-3.21-1.4-6.44-2.71-9.68-3.91-.54-.2-1.09-.39-1.63-.58.23-.63.45-1.27.67-1.93l12.94-38.47c.43-1.27.88-2.5,1.32-3.7,3.71.46,7.67.7,11.92.7,4.75,0,9.13-.62,13.14-1.85,4.01-1.24,7.51-3.01,10.48-5.31,2.98-2.3,5.28-5.01,6.92-8.11,1.64-3.11,2.46-6.49,2.46-10.17,0-2.87-.72-5.41-2.16-7.61-1.44-2.2-3.41-3.92-5.92-5.16-2.51-1.23-5.37-1.85-8.58-1.85-3.95,0-7.73.89-11.34,2.66-3.61,1.77-6.99,4.38-10.13,7.81-3.14,3.44-6.09,7.7-8.83,12.77-1.14,2.11-2.23,4.37-3.28,6.77-2.48-.58-4.87-1.27-7.15-2.11-3.55-1.3-6.96-2.85-10.23-4.66-1-.6-1.92-.82-2.76-.65-.84.17-1.55.79-2.16,1.85-.74,1.2-1.05,2.27-.95,3.21.1.94.65,1.7,1.66,2.31,4.08,2.4,8.11,4.36,12.09,5.86,2.09.79,4.23,1.46,6.42,2.01-.36,1-.71,2.01-1.05,3.05l-13.44,40.17s-.02.06-.03.09c-3.13-.73-6.2-1.1-9.2-1.1-3.21,0-6.1.59-8.68,1.75-2.58,1.17-4.62,2.77-6.12,4.81-1.5,2.04-2.26,4.39-2.26,7.06,0,2,.5,3.77,1.5,5.31,1,1.54,2.41,2.72,4.21,3.56,1.81.83,3.91,1.25,6.32,1.25,3.21,0,6.2-.75,8.98-2.25,2.77-1.5,5.35-3.91,7.73-7.21.78-1.08,1.52-2.28,2.23-3.57,1.08.36,2.16.75,3.24,1.17,3.01,1.17,6,2.42,8.98,3.76,2.98,1.34,5.92,2.59,8.83,3.76,2.91,1.17,5.7,2.12,8.38,2.85,2.39.66,4.63,1,6.75,1.07.09,0,.18.03.27.03.09,0,.18,0,.27,0,.08,0,.16,0,.24,0,.13,0,.25-.02.38-.03.14,0,.28-.02.41-.03.04,0,.09,0,.13-.01,2.25-.22,4.47-.94,6.65-2.18,2.64-1.5,5.5-4.07,8.58-7.71,3.08-3.64,6.67-8.62,10.79-14.93.33-.5.67-1.03,1.01-1.56l-3.26,9.92c-.54,1.67-.97,3.46-1.3,5.36-.34,1.9-.34,3.71,0,5.41.33,1.7,1.22,3.09,2.66,4.16,1.32.98,3.28,1.51,5.87,1.59.07,0,.13.02.2.02.06,0,.12,0,.18,0,.11,0,.21,0,.32,0,.66,0,1.25-.09,1.76-.26,1.33-.3,2.72-.86,4.16-1.69,2.27-1.3,4.9-3.51,7.88-6.61,2.98-3.11,6.49-7.31,10.53-12.62,1.3-1.71,2.69-3.57,4.14-5.56l-7.6,23.25c-.4,1.27-.13,2.14.8,2.6.94.47,1.94.7,3.01.7,1.54,0,2.64-.22,3.31-.65.67-.43,1.14-1.08,1.4-1.95l6.08-18.59c1.72,4.21,3.49,7.68,5.31,10.42,1.84,2.77,3.66,4.96,5.47,6.56,1.81,1.6,3.53,2.74,5.17,3.41,1.64.67,3.16,1,4.57,1,.02,0,.03,0,.05,0,.02,0,.03,0,.05,0,1.94,0,4.26-.35,6.97-1.05,2.71-.7,5.75-1.84,9.13-3.41,2.63-1.22,5.44-2.77,8.42-4.62,0,0,0,.01,0,.01.97,1.84,2.19,3.42,3.66,4.76,1.47,1.34,3.18,2.39,5.12,3.16,1.94.77,4.15,1.15,6.62,1.15,2.74,0,5.5-.37,8.28-1.1,2.77-.73,5.52-1.99,8.23-3.76,2.71-1.77,5.33-4.26,7.88-7.46.8-1,1.15-1.9,1.05-2.71-.1-.8-.49-1.57-1.15-2.3ZM150,277.59c2.47-2.9,5.05-5.11,7.73-6.61,2.67-1.5,5.48-2.25,8.43-2.25,1.54,0,2.91.25,4.11.75,1.2.5,2.11,1.24,2.71,2.2.6.97.9,2.12.9,3.46,0,2.47-.59,4.73-1.76,6.76-1.17,2.04-2.83,3.81-4.97,5.31-2.14,1.5-4.65,2.69-7.52,3.56-2.88.87-6.02,1.3-9.43,1.3-3.08,0-5.98-.16-8.75-.44.52-1.13,1.04-2.22,1.58-3.27,2.17-4.27,4.5-7.86,6.97-10.77ZM106.46,354.78c-1.67,1.07-3.31,1.6-4.92,1.6-1.07,0-1.96-.35-2.66-1.05-.7-.7-1.05-1.49-1.05-2.35,0-.93.35-1.77,1.05-2.5.7-.73,1.64-1.3,2.81-1.7,1.17-.4,2.42-.6,3.76-.6,2.14,0,4.3.2,6.49.61-.22.36-.44.71-.67,1.04-1.54,2.24-3.14,3.89-4.82,4.96ZM243.91,284.45c1.47-4.47,2.74-7.92,3.81-10.32,1.07-2.4,2.11-4.06,3.11-4.96,1-.9,2.04-1.35,3.11-1.35.8,0,1.47.18,2.01.55.53.37.94.89,1.2,1.55.27.67.4,1.47.4,2.4,0,1.47-.27,3.09-.8,4.86-.54,1.77-1.27,3.67-2.21,5.71-.94,2.04-2.11,4.12-3.51,6.26-1.4,2.14-2.96,4.31-4.67,6.51-1.71,2.2-3.55,4.41-5.52,6.61-1.34,1.5-2.76,2.96-4.22,4.4l7.28-22.23ZM226.81,336.71c2.41-3.19,4.78-6.13,7.12-8.78,2.71-3.07,5.32-5.51,7.83-7.31s4.77-2.71,6.77-2.71c.94,0,1.64.22,2.11.65.47.44.7,1.05.7,1.85,0,1.4-.6,2.86-1.81,4.36-1.2,1.5-2.91,3.01-5.12,4.51s-4.88,2.9-8.03,4.21c-2.9,1.2-6.1,2.27-9.57,3.22ZM276.82,334.35c.53-2.74,1.35-5.34,2.46-7.81,1.1-2.47,2.46-4.52,4.06-6.16,1.61-1.64,3.44-2.45,5.52-2.45,1.34,0,2.34.44,3.01,1.3.67.87,1,2.07,1,3.61,0,1.94-.72,4.04-2.16,6.31-1.44,2.27-3.36,4.58-5.77,6.91-2.41,2.34-5.12,4.61-8.13,6.81-.25.17-.49.34-.74.51-.04-.53-.07-1.06-.07-1.61,0-2.2.27-4.67.8-7.41Z"/>
  </g>
</svg>