<?xml version="1.0" encoding="UTF-8"?>
<svg id="Layer_1" data-name="Layer 1" xmlns="http://www.w3.org/2000/svg" viewBox="0 0 530 160">
  <defs>
    <style>
      .cls-1 {
        fill: white;
      }
    </style>
  </defs>
  <path class="cls-1" d="M299.98,89.64c-1.08-.27-2.02.07-2.83,1.02-1.62,1.77-3.35,3.42-5.2,4.95-1.85,1.53-3.77,2.75-5.76,3.67-1.99.92-4.02,1.38-6.11,1.38-1.95,0-3.65-.37-5.1-1.12-1.45-.75-2.64-1.77-3.58-3.06-.2-.28-.39-.57-.57-.87.91-.64,1.82-1.28,2.69-1.88,3.9-2.86,7.44-5.93,10.6-9.23,3.16-3.3,5.7-6.63,7.62-9.99,1.92-3.36,2.88-6.58,2.88-9.64,0-2.24-.49-4.16-1.46-5.76-.98-1.6-2.31-2.82-3.99-3.67-1.68-.85-3.53-1.27-5.55-1.27-3.5,0-6.56.71-9.19,2.14-2.63,1.43-4.88,3.33-6.76,5.71-1.89,2.38-3.42,5.01-4.59,7.9-1.18,2.89-2.04,5.8-2.57,8.72-.54,2.92-.81,5.64-.81,8.16,0,2.17.23,4.28.68,6.32-3.9,2.47-7.48,4.38-10.72,5.71-3.8,1.56-7.08,2.35-9.84,2.35-1.55,0-2.39-.65-2.52-1.94-.14-1.29.4-3.74,1.62-7.34l5.96-17.54c1.35-3.88,2.02-7.33,2.02-10.35s-.79-5.42-2.37-7.19c-1.58-1.77-4.16-2.65-7.72-2.65s-6.98,1.12-10.45,3.37c-3.47,2.24-6.87,5.51-10.2,9.79-1.48,1.9-2.92,3.98-4.34,6.23,1.11-3.55,1.68-6.75,1.72-9.59.03-3.06-.74-5.46-2.32-7.19-1.58-1.73-4.16-2.6-7.72-2.6-2.15,0-4.31.43-6.46,1.27-2.15.85-4.29,2.11-6.41,3.77-2.12,1.67-4.21,3.72-6.26,6.17-2.05,2.45-4.06,5.24-6.01,8.36l1.82-5.51c.4-1.36.74-2.86,1.01-4.49.27-1.63.27-3.18,0-4.64-.27-1.46-.99-2.65-2.17-3.57-1.18-.92-3.01-1.38-5.5-1.38-1.89,0-3.75.25-5.6.76-1.85.51-3.79,1.62-5.81,3.31-2.02,1.7-4.23,4.28-6.61,7.75-2.39,3.47-5.1,8.12-8.13,13.97-1.68,3.33-3.31,6.31-4.9,8.92-1.58,2.62-3.1,4.84-4.54,6.68-1.45,1.84-2.86,3.23-4.24,4.18-1.38.95-2.68,1.43-3.89,1.43-1.55,0-2.36-.66-2.42-1.99-.07-1.33.47-3.76,1.62-7.29l10.91-33.35c.47-1.36.42-2.36-.15-3.01-.57-.65-1.9-.97-3.99-.97-1.28,0-2.24.2-2.88.61-.64.41-1.2,1.29-1.67,2.65l-.5,1.53c-2.42,5.98-5.05,11.47-7.88,16.47-2.83,5-5.71,9.33-8.63,13-2.93,3.67-5.77,6.53-8.53,8.57-2.76,2.04-5.32,3.06-7.67,3.06-1.82,0-3.05-.44-3.69-1.33-.64-.88-.88-2.07-.71-3.57.17-1.49.56-3.09,1.16-4.79l10.7-32.22c.47-1.36.42-2.36-.15-3.01-.57-.65-1.9-.97-3.99-.97-1.28,0-2.24.2-2.88.61-.64.41-1.2,1.29-1.67,2.65l-.92,2.8c-1.4,2.37-2.89,4.75-4.48,7.15-1.78,2.69-3.74,5.35-5.86,8-2.12,2.65-4.48,5.32-7.07,8.01-2.59,2.69-5.54,5.35-8.83,8-3.3,2.65-6.97,5.29-11.01,7.9-.85.55-1.74,1.11-2.64,1.67L86.42,6.73c.34-1.09.15-1.87-.56-2.35-.71-.48-1.84-.71-3.38-.71s-2.63.24-3.43.71c-.81.48-1.38,1.19-1.72,2.14l-14.14,43.75c-3.03,6.53-6.24,12.39-9.64,17.59-3.4,5.2-6.9,9.62-10.5,13.26-3.6,3.64-7.2,6.39-10.8,8.26-3.6,1.87-7.12,2.8-10.55,2.8-2.96,0-5.17-.66-6.61-1.99-1.45-1.33-2.19-3.35-2.22-6.07-.03-2.72.59-6.05,1.87-9.99l17.37-54.05c1.75-5.44,1.97-9.55.66-12.34-1.31-2.79-4.12-4.18-8.43-4.18-1.82,0-3.87.46-6.16,1.38-2.29.92-4.85,2.67-7.67,5.25-2.83,2.58-5.99,6.36-9.49,11.32-.81,1.16-1.13,2.19-.96,3.11.17.92.79,1.68,1.87,2.29,1.21.75,2.34.97,3.38.66,1.04-.31,2.1-1.24,3.18-2.8,2.09-2.92,3.94-5.3,5.55-7.14,1.62-1.84,3.06-3.21,4.34-4.13,1.28-.92,2.49-1.38,3.64-1.38,1.48,0,2.25.61,2.32,1.84.07,1.22-.3,3.16-1.11,5.81L5.75,74.44c-1.82,5.71-2.52,10.55-2.12,14.53s1.9,7,4.49,9.08c2.59,2.07,6.28,3.11,11.06,3.11,3.1,0,6.18-.53,9.24-1.58,3.06-1.05,6.11-2.6,9.14-4.64s5.99-4.57,8.89-7.6c2.89-3.02,5.65-6.54,8.28-10.56l-9.98,31.05c-4.87,2.6-9.32,5.18-13.35,7.75-4.11,2.62-7.72,5.2-10.85,7.75-3.13,2.55-5.77,5.11-7.93,7.7-2.15,2.58-3.79,5.17-4.9,7.75-1.11,2.58-1.67,5.17-1.67,7.75,0,.37.05.71.13,1.03.14,2.48.78,4.6,1.94,6.37,1.31,2,3.06,3.52,5.25,4.54,2.19,1.02,4.59,1.53,7.22,1.53,4.24,0,7.84-.92,10.8-2.75,2.96-1.84,5.55-4.68,7.77-8.52,2.22-3.84,4.27-8.68,6.16-14.53l7.35-22.81c4.06-2.38,7.79-4.75,11.17-7.12,4.81-3.36,9.07-6.73,12.77-10.1,3.7-3.36,7-6.76,9.89-10.2.92-1.09,1.79-2.19,2.65-3.29l-2.55,7.73c-1.41,4.35-2.05,8.04-1.92,11.06.13,3.03,1.06,5.3,2.78,6.83,1.72,1.53,4.12,2.29,7.22,2.29,2.22,0,4.46-.44,6.71-1.33,2.25-.88,4.51-2.17,6.77-3.87,2.25-1.7,4.46-3.77,6.61-6.22,2.15-2.45,4.24-5.27,6.26-8.46l-1.11,3.26c-.54,1.63-.98,3.42-1.31,5.35-.34,1.94-.34,3.77,0,5.51.34,1.73,1.23,3.16,2.68,4.28,1.45,1.12,3.65,1.68,6.61,1.68.04,0,.08,0,.12,0,.03,0,.05,0,.09,0,1.55,0,3.22-.29,5-.87,1.78-.58,3.75-1.8,5.91-3.67,2.16-1.87,4.54-4.69,7.17-8.46s5.52-8.85,8.68-15.25c2.15-4.21,4.05-7.58,5.7-10.1,1.65-2.51,3.1-4.4,4.34-5.66,1.24-1.26,2.36-2.07,3.33-2.45.98-.37,1.83-.56,2.57-.56.02,0,.03,0,.05,0,.02,0,.03,0,.05,0,.81,0,1.33.24,1.57.71.24.48.25,1.05.05,1.73l-13.13,40.99c-.4,1.29-.15,2.17.76,2.65.91.48,1.9.71,2.98.71,1.55,0,2.68-.22,3.38-.66.71-.44,1.19-1.1,1.46-1.99l1.21-3.77c2.42-5.78,4.98-11.1,7.67-15.96,2.69-4.86,5.42-9.08,8.18-12.64,2.76-3.57,5.44-6.34,8.03-8.31,2.59-1.97,4.96-2.96,7.12-2.96,1.88,0,3.13.44,3.74,1.33.61.88.82,2.06.66,3.52-.17,1.46-.56,3.08-1.16,4.84l-10.8,33.24c-.47,1.29-.24,2.17.71,2.65.94.48,1.95.71,3.03.71,1.55,0,2.66-.22,3.33-.66.67-.44,1.18-1.1,1.51-1.99l.91-2.78c2.4-5.83,4.94-11.21,7.63-16.14,2.73-5,5.49-9.35,8.28-13.05,2.79-3.7,5.52-6.58,8.18-8.62,2.66-2.04,5.1-3.06,7.32-3.06,1.88,0,3.13.44,3.74,1.33.61.88.82,2.06.66,3.52-.17,1.46-.56,3.08-1.16,4.84l-6.77,19.99c-.54,1.63-.98,3.42-1.31,5.35-.34,1.94-.34,3.77,0,5.51.34,1.73,1.21,3.16,2.63,4.28,1.41,1.12,3.6,1.68,6.56,1.68.02,0,.03,0,.05,0,.02,0,.03,0,.05,0,1.95,0,4.29-.36,7.02-1.07,2.73-.71,5.79-1.87,9.19-3.47,2.65-1.24,5.48-2.82,8.47-4.71,0,0,0,.01,0,.02.98,1.87,2.2,3.48,3.69,4.84,1.48,1.36,3.2,2.43,5.15,3.21,1.95.78,4.17,1.17,6.66,1.17,2.76,0,5.54-.37,8.33-1.12,2.79-.75,5.55-2.02,8.28-3.82,2.73-1.8,5.37-4.33,7.93-7.6.81-1.02,1.16-1.94,1.06-2.75-.1-.82-.49-1.6-1.16-2.35-.67-.75-1.55-1.26-2.62-1.53ZM36.14,134.61c-1.89,5.98-4.01,10.37-6.36,13.16-2.36,2.79-5.18,4.18-8.48,4.18-1.82,0-3.27-.49-4.34-1.48-1.08-.99-1.62-2.36-1.62-4.13,0,0,0,0,0,0,0-2.11.45-4.2,1.36-6.27.91-2.07,2.26-4.15,4.04-6.22,1.78-2.07,3.96-4.18,6.51-6.32,2.56-2.14,5.54-4.3,8.94-6.48,1.71-1.09,3.5-2.2,5.37-3.31l-5.42,16.87ZM269.38,79.03c.54-2.79,1.36-5.44,2.47-7.95,1.11-2.51,2.47-4.6,4.09-6.27,1.62-1.67,3.47-2.5,5.55-2.5,1.35,0,2.36.44,3.03,1.33.67.88,1.01,2.11,1.01,3.67,0,1.97-.72,4.11-2.17,6.42-1.45,2.31-3.38,4.66-5.81,7.04-2.42,2.38-5.15,4.69-8.18,6.93-.25.18-.49.34-.74.52-.04-.54-.07-1.08-.07-1.64,0-2.24.27-4.76.81-7.55Z"/>
  <path class="cls-1" d="M411.45,4.28c-.74-.48-1.89-.71-3.43-.71-1.41,0-2.51.22-3.28.66-.77.44-1.33,1.14-1.67,2.09l-2.12,6.53c-1.82-2.04-3.96-3.74-6.41-5.1-2.46-1.36-5.15-2.4-8.08-3.11-2.93-.71-6.04-1.07-9.34-1.07-5.59,0-11.04.97-16.36,2.91-5.32,1.94-10.38,4.69-15.2,8.26-4.81,3.57-9.24,7.73-13.28,12.49-4.04,4.76-7.54,9.99-10.5,15.7-2.96,5.71-5.27,11.69-6.92,17.95-1.65,6.25-2.47,12.58-2.47,18.97,0,4.42.54,8.41,1.62,11.98,1.08,3.57,2.62,6.61,4.64,9.13,2.02,2.52,4.43,4.45,7.22,5.81,2.79,1.36,5.87,2.04,9.24,2.04,3.64,0,7.35-.78,11.16-2.35,3.8-1.56,7.67-3.88,11.61-6.94s7.89-6.88,11.86-11.47c3.97-4.59,7.91-9.91,11.81-15.96l-4.75,15.09c-1.62,4.96-2.41,9.04-2.37,12.24.03,3.2.81,5.56,2.32,7.09,1.51,1.53,3.69,2.29,6.51,2.29,2.02,0,3.95-.48,5.81-1.43,1.85-.95,3.64-2.19,5.35-3.72,1.72-1.53,3.3-3.18,4.75-4.95,1.45-1.77,2.71-3.43,3.79-5,.67-.95.92-1.92.76-2.91-.17-.98-.82-1.85-1.97-2.6-.88-.54-1.73-.76-2.58-.66-.84.1-1.63.7-2.37,1.78-1.89,2.59-3.52,4.68-4.9,6.27-1.38,1.6-2.58,2.75-3.58,3.47-1.01.71-1.95,1.07-2.83,1.07-.74,0-1.3-.22-1.67-.66-.37-.44-.56-1.14-.56-2.09s.18-2.17.56-3.67c.37-1.49.89-3.3,1.56-5.41l26.56-81.68c.4-1.09.23-1.87-.5-2.35ZM391.05,43.54c-3.84,7.21-7.67,13.78-11.51,19.73-3.84,5.95-7.62,11.2-11.36,15.76-3.74,4.56-7.42,8.41-11.06,11.57-3.64,3.16-7.14,5.54-10.5,7.14-3.37,1.6-6.63,2.4-9.79,2.4-2.09,0-4.04-.42-5.86-1.27-1.82-.85-3.43-2.11-4.85-3.77-1.41-1.67-2.51-3.74-3.28-6.22-.78-2.48-1.16-5.39-1.16-8.72,0-5.44.69-10.88,2.07-16.32,1.38-5.44,3.33-10.69,5.86-15.75,2.52-5.06,5.49-9.76,8.89-14.07,3.4-4.32,7.12-8.12,11.16-11.42,4.04-3.3,8.24-5.85,12.62-7.65,4.38-1.8,8.85-2.7,13.43-2.7,5.45,0,9.96.78,13.53,2.35,3.57,1.56,6.5,3.98,8.78,7.24l-6.97,21.72Z"/>
  <path class="cls-1" d="M529.79,13.41c-.27-.78-.91-1.24-1.92-1.38-1.68-.27-3.4-.73-5.15-1.38-1.75-.65-3.3-1.34-4.64-2.09-1.35-.75-2.26-1.49-2.73-2.24-.67-1.97-1.77-3.52-3.28-4.64-1.51-1.12-3.08-1.68-4.7-1.68-2.02,0-3.52.56-4.49,1.68-.98,1.12-1.46,2.4-1.46,3.82,0,1.16.35,2.26,1.06,3.31.71,1.05,1.77,1.82,3.18,2.29-.54,2.79-1.45,6.12-2.73,9.99-1.28,3.87-2.79,7.97-4.54,12.29-1.75,4.32-3.67,8.55-5.76,12.7-2.29,4.89-4.73,9.6-7.32,14.12-2.59,4.52-5.25,8.81-7.98,12.85-2.73,4.05-5.5,7.73-8.33,11.06-2.83,3.33-5.64,6.2-8.43,8.62-2.79,2.41-5.54,4.28-8.23,5.61-2.69,1.33-5.35,1.99-7.98,1.99-2.09,0-3.6-.59-4.54-1.78-.94-1.19-1.3-3.11-1.06-5.76.24-2.65,1.03-6.19,2.37-10.61,1.14-3.81,2.34-7.75,3.58-11.83,1.24-4.08,2.51-8.21,3.79-12.39,1.28-4.18,2.56-8.36,3.84-12.54,1.28-4.18,2.56-8.29,3.84-12.34,1.28-4.04,2.49-7.97,3.64-11.78,1.14-3.67,1.67-6.85,1.57-9.54-.1-2.68-.84-4.72-2.22-6.12-1.38-1.39-3.32-2.09-5.81-2.09-2.22,0-4.48.66-6.77,1.99-2.29,1.33-4.61,3.31-6.97,5.97-2.36,2.65-4.81,5.98-7.37,9.99-.74,1.16-1.04,2.19-.91,3.11.13.92.71,1.68,1.72,2.29,1.28.75,2.41.97,3.38.66.98-.31,2-1.24,3.08-2.8,1.88-2.72,3.52-5.01,4.9-6.88,1.38-1.87,2.61-3.3,3.69-4.28,1.08-.98,1.98-1.48,2.73-1.48s1.21.36,1.41,1.07c.2.71.17,1.75-.1,3.11-.27,1.36-.71,3.06-1.31,5.1-1.21,3.74-2.39,7.53-3.53,11.37-1.15,3.84-2.32,7.72-3.53,11.62-1.21,3.91-2.44,7.9-3.69,11.98-1.25,4.08-2.51,8.23-3.79,12.44-1.28,4.22-2.59,8.53-3.94,12.95-2.9,9.45-3.48,16.35-1.77,20.7,1.72,4.35,5.91,6.53,12.57,6.53,3.16,0,6.34-.6,9.54-1.78,3.2-1.19,6.44-2.97,9.74-5.35,3.3-2.38,6.6-5.32,9.89-8.82,3.3-3.5,6.61-7.56,9.95-12.19,3.33-4.62,6.65-9.79,9.95-15.5,3.3-5.71,6.56-11.96,9.79-18.76,1.95-4.08,3.69-8.01,5.2-11.78,1.51-3.77,2.79-7.36,3.84-10.76,1.04-3.4,1.9-6.53,2.58-9.38.67.48,1.51.97,2.52,1.48s2.09.99,3.23,1.43c1.14.44,2.32.8,3.53,1.07,1.21.27,2.36.44,3.43.51.81.07,1.53-.24,2.17-.92.64-.68,1.08-1.46,1.31-2.35.24-.88.22-1.72-.05-2.5Z"/>
</svg>