<?xml version="1.0" encoding="UTF-8"?>
<svg id="Layer_1" data-name="Layer 1" xmlns="http://www.w3.org/2000/svg" viewBox="0 0 400 400">
  <path d="M14.07,73.13h371.87c7.76,0,14.07-6.31,14.07-14.07s-6.31-14.07-14.07-14.07H14.07c-7.76,0-14.07,6.31-14.07,14.07s6.31,14.07,14.07,14.07Z"/>
  <path d="M385.93,185.93H14.07c-7.76,0-14.07,6.31-14.07,14.07s6.31,14.07,14.07,14.07h371.87c7.76,0,14.07-6.31,14.07-14.07s-6.31-14.07-14.07-14.07Z"/>
  <path d="M272.76,326.87H14.07c-7.76,0-14.07,6.31-14.07,14.07s6.31,14.07,14.07,14.07h258.69c7.76,0,14.07-6.31,14.07-14.07s-6.31-14.07-14.07-14.07Z"/>
</svg>