<?xml version="1.0" encoding="UTF-8"?>
<svg id="Layer_1" data-name="Layer 1" xmlns="http://www.w3.org/2000/svg" viewBox="0 0 400 400">
  <path d="M387.79,187.79c-6.74,0-12.21,5.47-12.21,12.21v175.59H24.41V24.41h175.59c6.74,0,12.21-5.47,12.21-12.21s-5.47-12.21-12.21-12.21H12.21C5.47,0,0,5.47,0,12.21v375.59c0,6.74,5.47,12.21,12.21,12.21h375.59c6.74,0,12.21-5.47,12.21-12.21v-187.79c0-6.74-5.47-12.21-12.21-12.21Z"/>
  <path d="M399.07,7.53c-.6-1.44-1.48-2.79-2.65-3.95s-2.55-2.07-4.01-2.67c-1.35-.55-2.82-.87-4.36-.9-.1,0-.21,0-.3,0h-112.65c-6.74,0-12.21,5.47-12.21,12.21s5.47,12.21,12.21,12.21h83.21L78.69,304.04c-4.77,4.77-4.77,12.5,0,17.26,2.38,2.38,5.51,3.58,8.63,3.58s6.25-1.19,8.63-3.58L375.59,41.68v83.21c0,6.74,5.47,12.21,12.21,12.21s12.21-5.47,12.21-12.21V12.21c0-1.66-.33-3.24-.93-4.68Z"/>
</svg>