<?xml version="1.0" encoding="UTF-8"?>
<svg id="Layer_1" data-name="Layer 1" xmlns="http://www.w3.org/2000/svg" viewBox="0 0 400 400">
  <defs>
    <style>
      .cls-1 {
        fill: #0c0b0d;
      }
    </style>
  </defs>
  <path class="cls-1" d="M341.42,322.92l-122.92-122.92,122.92-122.92c5.11-5.11,5.11-13.39,0-18.5-5.11-5.11-13.39-5.11-18.5,0l-122.92,122.92L77.08,58.58c-5.11-5.11-13.39-5.11-18.5,0-5.11,5.11-5.11,13.39,0,18.5l122.92,122.92-122.92,122.92c-5.11,5.11-5.11,13.39,0,18.5,5.11,5.11,13.39,5.11,18.5,0l122.92-122.92,122.92,122.92c5.11,5.11,13.39,5.11,18.5,0,5.11-5.11,5.11-13.39,0-18.5Z"/>
</svg>