<?xml version="1.0" encoding="UTF-8"?>
<svg id="Layer_1" data-name="Layer 1" xmlns="http://www.w3.org/2000/svg" viewBox="0 0 400 400">
  <path d="M391.62,374.43l-96.42-96.54c27.27-30.64,42.26-69.92,42.26-110.95C337.47,74.89,262.67,0,170.74,0S4,74.89,4,166.94s74.8,166.94,166.74,166.94c37.09,0,73.43-12.58,102.63-35.47l97.09,97.21c2.83,2.83,6.59,4.39,10.58,4.39s7.76-1.56,10.58-4.39c5.83-5.84,5.83-15.34,0-21.19ZM265.04,266.07c-.59.45-1.07.86-1.51,1.31-.22.22-.43.45-.64.7-25.28,23.11-58,35.84-92.16,35.84-75.43,0-136.8-61.45-136.8-136.97S95.3,29.96,170.74,29.96s136.8,61.45,136.8,136.97c0,37.79-15.09,72.98-42.49,99.13Z"/>
</svg>