<?xml version="1.0" encoding="UTF-8"?>
<svg id="Layer_1" data-name="Layer 1" xmlns="http://www.w3.org/2000/svg" viewBox="0 0 400 400">
  <defs>
    <style>
      .cls-1 {
        fill: #0c0b0d;
      }
    </style>
  </defs>
  <path class="cls-1" d="M398.83,195.25c-38.9-74.17-115.09-120.25-198.83-120.25S40.07,121.08,1.17,195.25c-1.56,2.98-1.56,6.53,0,9.5,38.9,74.17,115.09,120.25,198.83,120.25s159.93-46.08,198.83-120.25c1.56-2.97,1.56-6.52,0-9.5ZM200,304.53c-74.11,0-142.06-39.97-178.1-104.53,36.04-64.56,103.98-104.53,178.1-104.53s142.06,39.97,178.1,104.53c-36.04,64.56-103.98,104.53-178.1,104.53Z"/>
  <path class="cls-1" d="M200,112.98c-48.06,0-87.17,39.04-87.17,87.02s39.1,87.02,87.17,87.02,87.17-39.04,87.17-87.02-39.1-87.02-87.17-87.02ZM200,266.55c-36.76,0-66.66-29.85-66.66-66.55s29.9-66.55,66.66-66.55,66.66,29.85,66.66,66.55-29.9,66.55-66.66,66.55Z"/>
</svg>