<?xml version="1.0" encoding="UTF-8"?>
<svg id="Layer_1" data-name="Layer 1" xmlns="http://www.w3.org/2000/svg" viewBox="0 0 400 400">
  <path d="M200,0C89.72,0,0,89.72,0,200s89.72,200,200,200,200-89.72,200-200S310.28,0,200,0ZM200,375.59c-96.82,0-175.59-78.77-175.59-175.59S103.18,24.41,200,24.41s175.59,78.77,175.59,175.59-78.77,175.59-175.59,175.59Z"/>
  <path d="M282.59,198.67c-.43-7.75-4.64-14.61-11.43-18.53l-86.99-50.22c-7.18-4.15-15.75-4.15-22.93,0-7.18,4.14-11.47,11.57-11.47,19.86v100.44c0,8.29,4.29,15.72,11.47,19.86,3.59,2.08,7.53,3.11,11.47,3.11s7.87-1.03,11.46-3.11l86.99-50.22c7.18-4.14,11.47-11.57,11.47-19.86,0-.44-.02-.89-.04-1.33Z"/>
</svg>